<svg xmlns="http://www.w3.org/2000/svg" xmlns:xlink="http://www.w3.org/1999/xlink" version="1.1" x="0px" y="0px" viewBox="0 0 100 125" enable-background="new 0 0 100 100" xml:space="preserve"><g><g><path fill="#000000" d="M30.645,16.03c4.474-0.241,8.933,1.01,12.831,3.16c1.959,1.067,3.792,2.358,5.499,3.792    c0.115,0.104,0.227,0.095,0.334-0.03c3.619-3.049,7.886-5.442,12.539-6.444c3.68-0.788,7.599-0.696,11.158,0.582    c3.064,1.062,5.828,2.985,7.883,5.497c1.721,2.094,2.949,4.586,3.568,7.223c0.631,2.48,0.626,5.07,0.417,7.605    c-0.543,5.751-2.583,11.267-5.333,16.314c-2.771,5.078-6.253,9.744-10.131,14.029c-3.215,3.516-6.686,6.805-10.422,9.766    c-3.063,2.428-6.29,4.664-9.722,6.541C49.088,84.199,48.9,84,48.738,83.939c-4.764-2.658-9.156-5.945-13.227-9.564    c-3.775-3.365-7.271-7.045-10.406-11.014c-4.436-5.658-8.223-11.943-10.33-18.853c-1.209-4.058-1.859-8.347-1.387-12.576    c0.464-3.803,2.111-7.476,4.762-10.257C21.357,18.245,25.967,16.225,30.645,16.03z M24.537,19.586    c-0.074,0.048-0.224,0.145-0.297,0.192c0.944,1.79,1.887,3.58,2.827,5.372c0.29-0.097,0.489-0.341,0.729-0.516    c2.378-1.893,4.733-3.814,7.108-5.711c0.174-0.16,0.424-0.271,0.504-0.508C31.783,17.687,27.91,18.042,24.537,19.586z     M62.777,18.436c0.457,0.465,1.016,0.816,1.504,1.249c2.281,1.831,4.549,3.679,6.852,5.484c0.885-1.556,1.67-3.169,2.523-4.743    c0.119-0.235,0.275-0.464,0.314-0.729C70.51,18.077,66.51,17.643,62.777,18.436z M37.049,18.859    c-2.477,1.982-4.955,3.965-7.419,5.963c-0.485,0.409-1.02,0.765-1.47,1.214c3.203,1.273,6.36,2.661,9.55,3.966    c3.321-0.733,6.618-1.593,9.943-2.315c-0.06-0.225-0.271-0.347-0.43-0.494c-3.14-2.683-6.271-5.375-9.409-8.06    C37.609,18.953,37.331,18.782,37.049,18.859z M60.463,19.093c-3.229,2.775-6.459,5.551-9.698,8.315    c-0.09,0.082-0.169,0.176-0.234,0.278c0.097,0.014,0.289,0.041,0.386,0.055c3.053,0.722,6.104,1.443,9.156,2.168    c0.166,0.026,0.334,0.108,0.506,0.076c3.108-1.299,6.213-2.608,9.325-3.899c0.038-0.028,0.114-0.087,0.152-0.117    c-2.954-2.34-5.87-4.729-8.819-7.074C60.973,18.743,60.672,18.933,60.463,19.093z M17.219,26.478    c-0.158,0.312-0.372,0.608-0.411,0.965c2.685-0.474,5.354-1.025,8.036-1.522c0.352-0.088,0.729-0.086,1.059-0.249    c-0.206-0.525-0.508-1.007-0.759-1.512c-0.688-1.271-1.313-2.582-2.042-3.829C20.621,21.78,18.557,23.935,17.219,26.478z     M75.098,20.338c-0.826,1.592-1.669,3.177-2.5,4.766c-0.101,0.205-0.262,0.405-0.233,0.648c3.048,0.506,6.069,1.175,9.112,1.693    C80.188,24.482,77.922,21.917,75.098,20.338z M41.385,20.481c2.227,1.954,4.503,3.854,6.738,5.801    c0.11,0.096,0.232,0.172,0.369,0.229c0.025-0.411,0.033-0.824,0-1.235c-1.853-1.615-3.836-3.097-5.996-4.275    C42.136,20.809,41.779,20.594,41.385,20.481z M49.734,25.29c0.01,0.439,0.004,0.879-0.008,1.319    c2.17-1.866,4.348-3.726,6.518-5.592c0.195-0.171,0.426-0.316,0.553-0.551C54.215,21.703,51.887,23.414,49.734,25.29z     M71.963,26.941c0.068,1.392,0.064,2.786,0.111,4.181c0.016,0.745-0.098,1.529,0.242,2.223c1.145,1.546,2.34,3.055,3.484,4.604    c1.945-2.869,3.834-5.785,5.752-8.675c0.085-0.146,0.223-0.278,0.226-0.458C78.504,28.208,75.231,27.583,71.963,26.941z     M24.698,27.254c-2.769,0.504-5.523,1.088-8.297,1.559c0.88,1.421,1.849,2.788,2.749,4.198c1.102,1.621,2.131,3.293,3.264,4.892    c0.35-0.325,0.594-0.744,0.895-1.112c0.871-1.18,1.798-2.322,2.658-3.512c0.08-0.382,0.176-0.762,0.191-1.151    c0.039-1.71,0.104-3.419,0.078-5.13C25.714,27.007,25.212,27.168,24.698,27.254z M27.5,27.182    c0.031,0.538,0.025,1.078-0.031,1.613c-0.025,1.23,0.008,2.461-0.034,3.692c2.692-0.649,5.382-1.318,8.082-1.926l-0.041-0.099    c-2.437-1.021-4.876-2.039-7.312-3.062C27.949,27.309,27.734,27.205,27.5,27.182z M63.088,30.322    c-0.139,0.068-0.322,0.083-0.41,0.227c2.717,0.607,5.413,1.308,8.129,1.918c-0.018-1.771-0.089-3.54-0.093-5.312    C68.158,28.174,65.636,29.282,63.088,30.322z M40.696,30.603c0.065,0.184,0.307,0.146,0.456,0.206    c2.449,0.504,4.882,1.084,7.334,1.56c0.041-1.191,0.036-2.385,0.004-3.575C45.885,29.367,43.307,30.056,40.696,30.603z     M49.732,28.806c0.012,1.18,0.009,2.36,0.001,3.541c0.496-0.033,0.974-0.181,1.46-0.273c2.085-0.455,4.177-0.877,6.256-1.354    c0.041-0.026,0.121-0.079,0.162-0.106C54.97,30.082,52.372,29.344,49.732,28.806z M15.749,30.308    c-0.733,3.332-0.536,6.797,0.12,10.124c0.196,0.008,0.381-0.063,0.566-0.121c1.631-0.515,3.264-1.034,4.893-1.561    c-0.035-0.134-0.092-0.258-0.168-0.371c-1.622-2.431-3.216-4.879-4.834-7.312C16.141,30.811,16.02,30.493,15.749,30.308z     M82.367,30.33c-1.777,2.839-3.723,5.576-5.493,8.415c1.816,0.569,3.62,1.172,5.443,1.717c0.179-0.446,0.202-0.935,0.294-1.401    c0.412-2.86,0.543-5.813-0.123-8.646C82.456,30.393,82.396,30.35,82.367,30.33z M36.57,31.614    c-2.982,0.695-5.952,1.445-8.938,2.126c1.018,2.645,2.037,5.289,3.055,7.934c0.166,0.409,0.354,0.813,0.604,1.181    c3.171,4.74,6.348,9.476,9.516,14.218c0.26,0.41,0.536,0.824,0.938,1.105c2.349,1.75,4.705,3.488,7.052,5.238    c0.131,0.07,0.287,0.266,0.445,0.141c2.457-1.816,4.91-3.639,7.361-5.463c0.406-0.293,0.639-0.746,0.917-1.15    c3.06-4.578,6.122-9.155,9.187-13.731c0.741-1.009,1.084-2.226,1.551-3.372c0.758-2.041,1.604-4.054,2.319-6.108    c-2.951-0.673-5.891-1.41-8.837-2.103c-0.54-0.121-1.09-0.358-1.648-0.206c-3.646,0.779-7.289,1.576-10.934,2.354    c-3.695-0.766-7.383-1.582-11.074-2.366C37.57,31.28,37.066,31.503,36.57,31.614z M26.229,35.079    c-0.931,1.237-1.889,2.456-2.807,3.704c0.172,0.139,0.377,0.225,0.578,0.311c1.718,0.745,3.412,1.54,5.139,2.265    c-0.079-0.472-0.307-0.9-0.467-1.347c-0.682-1.783-1.387-3.559-2.049-5.351C26.436,34.733,26.35,34.932,26.229,35.079z     M71.181,35.817c-0.69,1.854-1.456,3.682-2.11,5.548c1.791-0.731,3.535-1.574,5.311-2.34c0.154-0.068,0.321-0.126,0.444-0.249    c-1.053-1.376-2.092-2.763-3.156-4.129C71.438,35.003,71.355,35.433,71.181,35.817z M22.723,40.004    c-1.113,3.461-2.354,6.882-3.467,10.346c3.106,1.117,6.263,2.109,9.383,3.195c0.268,0.09,0.537,0.205,0.824,0.213    c0.063-2.223,0.047-4.449,0.18-6.67c0.01-1.344-0.004-2.691,0.097-4.032c-2.14-0.966-4.29-1.907-6.429-2.873    C23.121,40.1,22.935,39.995,22.723,40.004z M75.264,40.036c-2.242,0.991-4.473,2.013-6.725,2.981    c-0.019,0.812-0.03,1.627,0.043,2.438c0.08,2.779,0.105,5.557,0.23,8.336c3.277-1.068,6.533-2.207,9.809-3.284    c0.189-0.032,0.42-0.19,0.297-0.41c-1.152-3.368-2.275-6.75-3.439-10.114C75.426,39.995,75.317,40.022,75.264,40.036z     M76.857,40.026c0.885,2.608,1.769,5.213,2.648,7.82c0.096,0.244,0.143,0.516,0.307,0.729c0.844-2.229,1.761-4.451,2.229-6.798    l-0.039-0.096C80.292,41.12,78.566,40.598,76.857,40.026z M16.165,41.681c0.449,2.174,1.226,4.269,2.054,6.323    c0.08,0.164,0.115,0.409,0.337,0.438c0.862-2.801,1.907-5.549,2.774-8.349C19.59,40.546,17.898,41.192,16.165,41.681z     M30.965,44.883c-0.117,1.544-0.08,3.109-0.129,4.66c-0.02,1.578-0.189,3.16-0.068,4.736c2.829,0.881,5.613,1.92,8.444,2.791    c-0.101-0.223-0.235-0.424-0.373-0.623c-2.458-3.68-4.918-7.355-7.382-11.03c-0.137-0.2-0.262-0.411-0.373-0.627    C31.055,44.814,30.994,44.861,30.965,44.883z M66.648,45.612c-1.708,2.567-3.435,5.123-5.144,7.689    c-0.827,1.291-1.757,2.518-2.53,3.842c2.82-1.02,5.693-1.9,8.514-2.914c0.066-1.371-0.092-2.76-0.047-4.139    c-0.062-1.784-0.138-3.568-0.143-5.354C67.01,44.963,66.874,45.328,66.648,45.612z M69.787,54.865    c0.371,0.322,0.831,0.516,1.242,0.779c1.215,0.693,2.403,1.438,3.635,2.102c1.26-1.826,2.42-3.73,3.423-5.713    C75.325,52.988,72.528,53.859,69.787,54.865z M20.208,52.1c0.034,0.088,0.101,0.26,0.134,0.348    c0.975,1.814,2.061,3.566,3.189,5.287c0.324-0.084,0.596-0.295,0.885-0.455c1.318-0.773,2.635-1.547,3.957-2.312    c-0.006-0.043-0.021-0.133-0.028-0.178c-2.554-0.846-5.099-1.715-7.647-2.574C20.537,52.164,20.373,52.125,20.208,52.1z     M30.644,55.576c-0.009,3.582-0.213,7.166-0.212,10.75c-0.022,0.273,0.281,0.328,0.482,0.379c3.9,0.686,7.799,1.387,11.7,2.074    c-0.681-3.316-1.548-6.6-2.248-9.912C37.141,57.73,33.885,56.666,30.644,55.576z M57.902,58.846    c-0.781,3.312-1.543,6.629-2.312,9.947c3.976-0.715,7.952-1.424,11.931-2.119c0.117-0.062,0.225-0.139,0.324-0.23    c-0.021-1.949-0.16-3.896-0.13-5.848c-0.075-1.674-0.133-3.348-0.145-5.023C64.352,56.674,61.118,57.732,57.902,58.846z     M24.351,58.729c-0.004,0.131,0.036,0.246,0.118,0.348c1.372,1.936,2.849,3.791,4.382,5.602c0.104,0.092,0.177,0.275,0.345,0.262    c-0.071-0.814,0.073-1.623,0.041-2.434c-0.025-2.23,0.186-4.451,0.131-6.68C27.686,56.777,26.043,57.799,24.351,58.729z     M68.85,55.834c0.025,1.586,0.112,3.172,0.09,4.762c0.078,1.455,0.107,2.916,0.143,4.377c0.152-0.121,0.283-0.268,0.408-0.418    c1.557-1.852,3.079-3.74,4.443-5.74c-0.17-0.131-0.351-0.248-0.535-0.352C71.873,57.602,70.389,56.664,68.85,55.834z     M41.92,59.926c0.621,2.82,1.314,5.623,1.934,8.443c1.426-1.258,2.812-2.566,4.23-3.836c-0.133-0.189-0.346-0.297-0.525-0.434    C45.682,62.703,43.81,61.303,41.92,59.926z M55.879,60.229c-1.898,1.449-3.848,2.836-5.743,4.287    c1.416,1.244,2.756,2.578,4.204,3.781c0.201-0.381,0.22-0.824,0.331-1.232c0.534-2.348,1.123-4.686,1.606-7.043    C56.13,60.064,55.998,60.133,55.879,60.229z M49.057,65.395c-1.582,1.426-3.159,2.859-4.721,4.309    c-0.014,0.039-0.043,0.121-0.059,0.162c0.819,1.902,1.602,3.82,2.417,5.725c0.771,1.918,1.638,3.799,2.371,5.732    c0.11-0.105,0.181-0.244,0.239-0.381c1.502-3.594,3.012-7.184,4.524-10.771c0.048-0.158,0.218-0.363,0.048-0.508    c-1.582-1.42-3.129-2.883-4.726-4.285L49.057,65.395z M32.109,68.236c1.768,1.869,3.654,3.625,5.59,5.32    c0.111,0.096,0.229,0.186,0.361,0.25c1.266-1.242,2.596-2.418,3.887-3.635c0.025-0.043,0.076-0.125,0.102-0.166    C38.745,69.369,35.426,68.801,32.109,68.236z M56.229,70.012c0.049,0.129,0.127,0.238,0.237,0.328    c1.132,1.049,2.271,2.092,3.394,3.152c0.146,0.084,0.268,0.334,0.463,0.248c1.819-1.562,3.564-3.211,5.252-4.914    c0.18-0.188,0.4-0.35,0.507-0.596C62.797,68.822,59.496,69.354,56.229,70.012z M42.896,70.984    c-1.289,1.23-2.643,2.396-3.898,3.658c1.611,1.387,3.312,2.668,5.045,3.898c1.137,0.775,2.252,1.605,3.467,2.248    c-1.373-3.383-2.822-6.738-4.23-10.105C43.136,70.762,43.012,70.869,42.896,70.984z M54.929,70.709    c-1.233,3.035-2.538,6.041-3.792,9.07c-0.136,0.33-0.309,0.648-0.377,1.004c1.326-0.738,2.557-1.633,3.801-2.498    c1.591-1.164,3.186-2.334,4.662-3.643c-0.16-0.234-0.382-0.412-0.589-0.602c-1.038-0.965-2.078-1.928-3.118-2.893    C55.33,70.992,55.184,70.754,54.929,70.709z"/></g></g><text x="0" y="115" fill="#000000" font-size="5px" font-weight="bold" font-family="'Helvetica Neue', Helvetica, Arial-Unicode, Arial, Sans-serif">Created by misirlou</text><text x="0" y="120" fill="#000000" font-size="5px" font-weight="bold" font-family="'Helvetica Neue', Helvetica, Arial-Unicode, Arial, Sans-serif">from the Noun Project</text></svg>