<svg width="589" height="274" viewBox="0 0 589 274" fill="none" xmlns="http://www.w3.org/2000/svg">
<g clip-path="url(#clip0_805_585)">
<path d="M-495.404 202.219C-510.979 202.219 -523.488 197.497 -532.932 188.053C-542.211 178.609 -546.85 165.851 -546.85 149.779C-546.85 133.542 -541.548 119.624 -530.944 108.026C-520.174 96.2622 -506.257 90.3804 -489.191 90.3804C-483.392 90.3804 -477.179 91.2088 -470.551 92.8657C-463.758 94.5225 -460.279 96.4279 -460.113 98.5819C-459.781 102.558 -459.616 107.363 -459.616 112.997C-459.616 118.464 -460.527 121.198 -462.35 121.198C-464.006 121.198 -465.498 120.121 -466.823 117.967C-469.64 113.162 -475.025 109.02 -482.978 105.541C-490.765 101.896 -497.641 100.073 -503.606 100.073C-506.919 100.073 -510.15 101.316 -513.298 103.801C-516.446 106.286 -519.015 109.02 -521.003 112.003C-525.808 118.961 -528.21 128.82 -528.21 141.578C-528.21 154.336 -524.151 165.519 -516.032 175.129C-507.748 184.573 -497.641 189.296 -485.711 189.296C-479.912 189.296 -474.528 188.219 -469.557 186.065C-464.586 183.911 -460.776 181.757 -458.125 179.603C-455.308 177.449 -453.568 176.372 -452.905 176.372C-451.083 176.372 -450.172 177.2 -450.172 178.857C-450.172 180.514 -451.911 183.082 -455.391 186.562C-458.87 189.875 -462.267 192.526 -465.581 194.515C-473.699 199.651 -483.64 202.219 -495.404 202.219ZM-379.055 201.474C-395.955 201.474 -409.459 196.089 -419.565 185.319C-429.507 174.384 -434.477 161.377 -434.477 146.3C-434.477 131.222 -429.341 118.05 -419.068 106.783C-408.63 95.5167 -394.961 89.8833 -378.061 89.8833C-360.995 89.8833 -346.746 94.7711 -335.314 104.547C-323.715 114.322 -317.916 127.908 -317.916 145.306C-317.916 162.703 -323.881 176.455 -335.811 186.562C-347.574 196.503 -361.989 201.474 -379.055 201.474ZM-381.789 96.5936C-390.405 96.5936 -398.109 99.9902 -404.902 106.783C-411.53 113.577 -414.843 124.76 -414.843 140.335C-414.843 155.91 -410.287 168.75 -401.174 178.857C-392.061 188.964 -382.286 194.018 -371.848 194.018C-361.244 194.018 -352.711 190.455 -346.249 183.331C-339.787 176.041 -336.556 165.437 -336.556 151.519C-336.556 137.601 -340.533 125.009 -348.486 113.742C-356.439 102.31 -367.54 96.5936 -381.789 96.5936ZM-286.852 149.282L-285.858 43.6566C-285.858 39.8458 -286.521 36.4492 -287.846 33.4668C-289.006 30.3188 -290.331 28.4134 -291.823 27.7506C-293.314 27.0879 -296.628 26.7565 -301.764 26.7565C-303.586 26.7565 -304.498 26.1766 -304.498 25.0168C-304.498 23.857 -304.415 23.0286 -304.249 22.5315C-303.918 22.0344 -303.338 21.6202 -302.509 21.2888C-301.681 20.7918 -300.687 20.3776 -299.527 20.0462C-294.722 19.0521 -289.752 17.3123 -284.615 14.827C-276.497 11.0162 -271.195 9.11084 -268.709 9.11084C-266.721 9.11084 -265.727 10.6849 -265.727 13.8329C-265.727 14.4957 -265.893 16.4011 -266.224 19.5491C-267.218 29.3247 -267.715 40.0115 -267.715 51.6096V65.5273L-268.212 98.5819V172.644C-268.212 176.123 -267.964 179.023 -267.467 181.343C-266.804 183.497 -264.898 185.65 -261.75 187.804C-258.437 189.793 -253.88 190.787 -248.081 190.787C-247.253 190.787 -246.507 191.201 -245.844 192.029C-245.182 192.858 -244.85 193.686 -244.85 194.515C-244.85 196.834 -247.419 197.994 -252.555 197.994L-277.656 196.254C-281.964 196.254 -286.106 196.586 -290.083 197.249C-293.894 197.911 -296.462 198.243 -297.787 198.243C-298.947 198.243 -299.941 197.911 -300.77 197.249C-301.432 196.751 -301.764 196.089 -301.764 195.26C-301.764 194.266 -301.432 193.521 -300.77 193.024C-299.941 192.361 -298.699 191.864 -297.042 191.532C-292.071 190.207 -289.089 188.219 -288.095 185.568C-287.101 182.751 -286.604 178.94 -286.604 174.135L-286.852 167.673V149.282ZM-217.438 149.282L-216.444 43.6566C-216.444 39.8458 -217.107 36.4492 -218.432 33.4668C-219.592 30.3188 -220.918 28.4134 -222.409 27.7506C-223.9 27.0879 -227.214 26.7565 -232.35 26.7565C-234.173 26.7565 -235.084 26.1766 -235.084 25.0168C-235.084 23.857 -235.001 23.0286 -234.835 22.5315C-234.504 22.0344 -233.924 21.6202 -233.096 21.2888C-232.267 20.7918 -231.273 20.3776 -230.113 20.0462C-225.308 19.0521 -220.338 17.3123 -215.201 14.827C-207.083 11.0162 -201.781 9.11084 -199.295 9.11084C-197.307 9.11084 -196.313 10.6849 -196.313 13.8329C-196.313 14.4957 -196.479 16.4011 -196.81 19.5491C-197.804 29.3247 -198.301 40.0115 -198.301 51.6096V65.5273L-198.798 98.5819V172.644C-198.798 176.123 -198.55 179.023 -198.053 181.343C-197.39 183.497 -195.485 185.65 -192.337 187.804C-189.023 189.793 -184.466 190.787 -178.667 190.787C-177.839 190.787 -177.093 191.201 -176.431 192.029C-175.768 192.858 -175.437 193.686 -175.437 194.515C-175.437 196.834 -178.005 197.994 -183.141 197.994L-208.243 196.254C-212.55 196.254 -216.693 196.586 -220.669 197.249C-224.48 197.911 -227.048 198.243 -228.374 198.243C-229.533 198.243 -230.527 197.911 -231.356 197.249C-232.019 196.751 -232.35 196.089 -232.35 195.26C-232.35 194.266 -232.019 193.521 -231.356 193.024C-230.527 192.361 -229.285 191.864 -227.628 191.532C-222.657 190.207 -219.675 188.219 -218.681 185.568C-217.687 182.751 -217.19 178.94 -217.19 174.135L-217.438 167.673V149.282ZM-110.935 201.722C-125.516 201.722 -137.942 197.249 -148.215 188.301C-158.322 179.354 -163.375 166.431 -163.375 149.531C-163.375 132.465 -158.736 118.216 -149.457 106.783C-140.013 95.351 -127.835 89.6348 -112.923 89.6348C-105.964 89.6348 -99.6684 90.8774 -94.035 93.3627C-88.236 95.848 -83.7624 98.9132 -80.6144 102.558C-77.4663 106.038 -74.8153 109.766 -72.6614 113.742C-69.0163 120.535 -67.1937 125.672 -67.1937 129.151C-67.1937 132.134 -70.5903 133.625 -77.3835 133.625H-141.256C-142.581 133.625 -143.41 133.79 -143.741 134.122C-143.907 134.287 -143.99 135.033 -143.99 136.359C-143.99 151.933 -139.847 164.194 -131.563 173.141C-123.113 182.088 -113.255 186.562 -101.988 186.562C-95.0291 186.562 -87.9874 184.739 -80.8629 181.094C-73.5727 177.283 -69.7618 175.378 -69.4305 175.378C-67.7736 175.378 -66.9452 176.123 -66.9452 177.615C-66.9452 179.603 -68.7677 182.337 -72.4128 185.816C-76.058 189.13 -79.5374 191.864 -82.8511 194.018C-90.8041 199.154 -100.165 201.722 -110.935 201.722ZM-139.268 127.66L-95.5262 126.169C-93.2066 126.169 -91.7982 126.003 -91.3012 125.672C-90.6384 125.175 -90.3071 124.346 -90.3071 123.186C-90.3071 118.216 -92.6267 112.417 -97.2659 105.789C-101.905 99.1618 -108.367 95.848 -116.651 95.848C-124.936 95.848 -131.315 99.1618 -135.788 105.789C-140.262 112.251 -142.498 118.381 -142.498 124.181C-142.498 126.5 -141.422 127.66 -139.268 127.66ZM3.84142 202.219C-11.7332 202.219 -24.2425 197.497 -33.6867 188.053C-42.9652 178.609 -47.6044 165.851 -47.6044 149.779C-47.6044 133.542 -42.3024 119.624 -31.6985 108.026C-20.9288 96.2622 -7.01109 90.3804 10.0547 90.3804C15.8537 90.3804 22.067 91.2088 28.6945 92.8657C35.4877 94.5225 38.9671 96.4279 39.1328 98.5819C39.4641 102.558 39.6298 107.363 39.6298 112.997C39.6298 118.464 38.7185 121.198 36.896 121.198C35.2391 121.198 33.7479 120.121 32.4224 117.967C29.6058 113.162 24.2209 109.02 16.2679 105.541C8.48066 101.896 1.60464 100.073 -4.36009 100.073C-7.67384 100.073 -10.9047 101.316 -14.0528 103.801C-17.2008 106.286 -19.769 109.02 -21.7572 112.003C-26.5622 118.961 -28.9646 128.82 -28.9646 141.578C-28.9646 154.336 -24.9053 165.519 -16.7866 175.129C-8.50227 184.573 1.60464 189.296 13.5341 189.296C19.3332 189.296 24.718 188.219 29.6886 186.065C34.6592 183.911 38.47 181.757 41.121 179.603C43.9377 177.449 45.6774 176.372 46.3402 176.372C48.1627 176.372 49.074 177.2 49.074 178.857C49.074 180.514 47.3343 183.082 43.8548 186.562C40.3754 189.875 36.9788 192.526 33.6651 194.515C25.5464 199.651 15.6052 202.219 3.84142 202.219ZM69.5195 104.795L64.7974 105.044C61.9807 105.044 60.5724 103.884 60.5724 101.564C60.5724 99.9074 61.318 98.499 62.8092 97.3392C69.1053 93.197 75.4014 86.9838 81.6975 78.6994C84.3485 74.8886 86.4196 72.1548 87.9108 70.4979C89.5676 68.6753 91.2245 67.7641 92.8814 67.7641C94.5382 67.7641 95.3667 69.6695 95.3667 73.4803C95.3667 73.4803 95.0353 78.2024 94.3726 87.6465C94.3726 89.9661 94.7868 91.3745 95.6152 91.8715C96.6093 92.3686 99.5917 92.6171 104.562 92.6171H113.261C120.717 92.6171 125.273 92.2029 126.93 91.3745C129.912 89.8833 131.735 89.1377 132.398 89.1377C134.055 89.1377 134.883 90.049 134.883 91.8715C134.883 93.197 133.806 95.848 131.652 99.8245C129.498 103.635 127.924 105.541 126.93 105.541C119.474 105.541 114.255 105.375 111.273 105.044C108.29 104.712 106.302 104.547 105.308 104.547C104.314 104.381 103.402 104.298 102.574 104.298C101.911 104.132 101.414 104.05 101.083 104.05L100.586 103.801C97.4378 103.801 95.3667 104.298 94.3726 105.292C93.5441 106.286 93.1299 108.523 93.1299 112.003L92.1358 158.229C92.1358 168.999 93.4613 176.538 96.1123 180.846C98.9289 184.988 104.728 187.059 113.509 187.059C116.989 187.059 120.8 186.313 124.942 184.822C129.25 183.165 131.569 182.337 131.901 182.337C133.558 182.337 134.386 183.414 134.386 185.568C134.386 187.722 131.486 190.621 125.687 194.266C120.054 197.746 113.924 199.485 107.296 199.485C84.9284 199.485 73.7445 189.793 73.7445 170.407V166.679L74.7386 108.772C74.7386 107.115 74.4073 106.038 73.7445 105.541C73.0818 105.044 71.6734 104.795 69.5195 104.795ZM178.325 197.994L160.68 198.491C154.052 198.491 150.739 197.414 150.739 195.26C150.739 192.941 151.981 191.367 154.467 190.538C154.632 190.538 154.964 190.455 155.461 190.29C159.271 188.964 161.757 186.976 162.917 184.325C164.076 181.674 164.656 168.833 164.656 145.803V123.932C164.656 119.127 164.076 115.316 162.917 112.5C161.757 109.683 160.68 107.943 159.686 107.28C158.692 106.618 156.952 106.121 154.467 105.789C152.147 105.292 150.407 104.878 149.247 104.547C148.253 104.05 147.756 103.387 147.756 102.558C147.756 101.564 147.922 100.819 148.253 100.322C148.75 99.8245 149.579 99.3275 150.739 98.8304C152.064 98.1677 153.39 97.5877 154.715 97.0907C159.354 95.7652 163.165 94.4397 166.147 93.1142C169.13 91.7887 171.367 90.7946 172.858 90.1318C174.515 89.4691 175.592 88.972 176.089 88.6406C177.248 88.1436 178.657 87.8951 180.314 87.8951C182.799 87.8951 184.042 89.4691 184.042 92.6171L182.55 104.547V172.644C182.55 177.615 183.296 181.508 184.787 184.325C186.444 187.142 188.101 188.881 189.758 189.544C191.58 190.207 193.652 190.621 195.971 190.787C198.291 190.952 199.782 191.035 200.445 191.035C202.764 191.367 203.924 192.526 203.924 194.515C203.924 197.331 202.516 198.74 199.699 198.74L195.971 198.491L178.325 197.994ZM174.1 64.5332C170.787 64.5332 167.887 62.7935 165.402 59.314C163.082 55.8346 161.922 53.0179 161.922 50.864C161.922 48.5444 163.331 45.6448 166.147 42.1654C169.13 38.5203 171.864 36.6977 174.349 36.6977C177 36.6977 179.568 38.4375 182.053 41.9169C184.539 45.2306 185.781 48.213 185.781 50.864C185.781 53.515 184.207 56.4973 181.059 59.8111C177.911 62.9591 175.592 64.5332 174.1 64.5332ZM273.338 201.474C256.438 201.474 242.934 196.089 232.827 185.319C222.886 174.384 217.916 161.377 217.916 146.3C217.916 131.222 223.052 118.05 233.324 106.783C243.763 95.5167 257.432 89.8833 274.332 89.8833C291.398 89.8833 305.647 94.7711 317.079 104.547C328.677 114.322 334.476 127.908 334.476 145.306C334.476 162.703 328.512 176.455 316.582 186.562C304.818 196.503 290.404 201.474 273.338 201.474ZM270.604 96.5936C261.988 96.5936 254.284 99.9902 247.491 106.783C240.863 113.577 237.55 124.76 237.55 140.335C237.55 155.91 242.106 168.75 251.219 178.857C260.331 188.964 270.107 194.018 280.545 194.018C291.149 194.018 299.682 190.455 306.144 183.331C312.606 176.041 315.837 165.437 315.837 151.519C315.837 137.601 311.86 125.009 303.907 113.742C295.954 102.31 284.853 96.5936 270.604 96.5936ZM405.774 197L387.631 196.006C383.323 196.006 377.607 196.172 370.482 196.503L359.795 197C357.31 197 356.068 196.254 356.068 194.763C356.068 193.272 356.482 192.361 357.31 192.029C358.139 191.698 359.133 191.449 360.293 191.284C361.618 191.118 362.861 190.621 364.021 189.793C367.169 187.804 368.908 181.84 369.24 171.898C369.571 161.791 369.737 155.164 369.737 152.016V116.228C369.737 110.926 368.743 107.363 366.754 105.541C364.932 103.718 362.364 102.807 359.05 102.807H356.565C353.417 102.807 351.843 101.896 351.843 100.073C351.843 98.4162 353.582 97.3392 357.062 96.8422C360.707 96.3451 363.523 95.848 365.512 95.351C367.666 94.6882 370.399 93.6941 373.713 92.3686C377.193 90.8774 379.926 89.6348 381.915 88.6406C384.069 87.6465 385.477 87.1495 386.14 87.1495H386.637C388.128 87.1495 388.874 88.1436 388.874 90.1318L388.377 100.819C388.377 105.127 388.708 107.28 389.371 107.28C390.033 107.28 390.696 106.866 391.359 106.038C393.844 102.558 397.158 99.576 401.3 97.0907C408.756 92.4514 415.881 90.1318 422.674 90.1318C429.467 90.1318 435.514 91.2088 440.816 93.3627C446.118 95.351 450.261 97.9191 453.243 101.067C456.225 104.05 458.711 107.529 460.699 111.505C464.013 118.133 465.67 124.926 465.67 131.885V134.37L465.918 147.542V172.893C465.918 179.189 466.747 183.579 468.403 186.065C470.226 188.384 474.451 190.041 481.078 191.035C484.392 191.532 486.049 192.775 486.049 194.763C486.049 196.42 484.392 197.249 481.078 197.249L460.699 196.006L441.562 197C438.248 197 436.591 195.923 436.591 193.769C436.591 192.278 437.586 191.284 439.574 190.787L442.805 190.041C446.45 188.881 448.272 183.331 448.272 173.39V139.838C448.272 127.08 445.124 117.47 438.828 111.008C432.532 104.381 425.408 101.067 417.455 101.067C409.502 101.067 402.874 102.973 397.572 106.783C392.27 110.594 389.039 114.156 387.879 117.47C386.72 120.784 386.14 133.459 386.14 155.495V164.94C386.14 173.224 386.968 179.354 388.625 183.331C390.448 187.307 394.341 189.544 400.306 190.041C401.963 190.041 404.034 190.373 406.519 191.035C409.17 191.532 410.496 192.444 410.496 193.769C410.496 195.923 408.922 197 405.774 197ZM572.493 97.3392L573.487 112.251C573.487 115.068 573.156 116.973 572.493 117.967C571.83 118.961 570.836 119.458 569.511 119.458C568.351 119.458 567.025 118.299 565.534 115.979C564.209 113.494 562.635 110.843 560.812 108.026C559.155 105.209 556.339 102.641 552.362 100.322C548.551 97.8363 544.161 96.5936 539.19 96.5936C534.219 96.5936 530.16 97.8363 527.012 100.322C523.864 102.641 522.29 105.209 522.29 108.026C522.29 110.843 522.538 113.162 523.036 114.985C523.533 116.642 524.361 118.133 525.521 119.458C526.846 120.784 527.923 121.944 528.752 122.938C529.746 123.766 531.32 124.678 533.474 125.672C535.628 126.666 537.202 127.411 538.196 127.908C539.356 128.24 541.178 128.903 543.664 129.897C558.741 135.199 568.434 140.418 572.742 145.554C577.05 150.525 579.203 157.732 579.203 167.176C579.203 176.62 574.813 185.319 566.031 193.272C560.067 198.408 551.865 200.976 541.427 200.976C534.302 200.976 526.349 199.237 517.568 195.757C515.083 194.763 513.591 194.266 513.094 194.266C512.763 194.1 512.1 193.852 511.106 193.521C510.278 193.189 509.615 193.024 509.118 193.024C508.786 192.858 508.289 192.609 507.627 192.278C506.964 191.947 506.467 191.698 506.135 191.532C505.97 191.201 505.721 190.787 505.39 190.29C504.893 189.461 504.644 188.136 504.644 186.313V164.691C504.644 162.868 504.976 161.377 505.638 160.217C506.467 158.892 507.544 158.229 508.869 158.229C510.195 158.229 511.106 158.643 511.603 159.472C512.266 160.135 512.846 161.626 513.343 163.945C513.84 166.265 514.337 167.922 514.834 168.916C520.964 184.159 529.58 191.781 540.681 191.781C545.818 191.781 550.705 190.455 555.345 187.804C559.984 184.988 562.303 180.68 562.303 174.881C562.303 168.916 560.398 164.111 556.587 160.466C552.776 156.821 548.137 154.004 542.669 152.016C537.202 149.862 531.734 147.708 526.266 145.554C520.799 143.235 516.16 139.921 512.349 135.613C508.538 131.139 506.633 125.589 506.633 118.961C506.633 109.683 510.36 102.227 517.816 96.5936C525.272 90.9603 533.474 88.1436 542.421 88.1436C551.368 88.1436 558.161 88.8892 562.8 90.3804C567.44 91.7059 570.174 92.9485 571.002 94.1083C571.996 95.2681 572.493 96.3451 572.493 97.3392Z" fill="#BFA6A1"/>
</g>
<defs>
<clipPath id="clip0_805_585">
<rect width="589" height="274" fill="white"/>
</clipPath>
</defs>
</svg>
