<svg width="557" height="275" viewBox="0 0 557 275" fill="none" xmlns="http://www.w3.org/2000/svg">
<g clip-path="url(#clip0_805_584)">
<path d="M61.5958 202.235C46.0212 202.235 33.5119 197.513 24.0677 188.069C14.7892 178.625 10.15 165.867 10.15 149.795C10.15 133.558 15.452 119.64 26.0559 108.042C36.8256 96.2784 50.7433 90.3965 67.8091 90.3965C73.6081 90.3965 79.8214 91.2249 86.4489 92.8818C93.242 94.5386 96.7215 96.4441 96.8872 98.598C97.2185 102.574 97.3842 107.379 97.3842 113.013C97.3842 118.48 96.4729 121.214 94.6504 121.214C92.9935 121.214 91.5023 120.137 90.1768 117.983C87.3602 113.178 81.9753 109.036 74.0223 105.557C66.235 101.912 59.359 100.089 53.3943 100.089C50.0806 100.089 46.8497 101.332 43.7016 103.817C40.5536 106.302 37.9854 109.036 35.9972 112.019C31.1922 118.977 28.7898 128.836 28.7898 141.594C28.7898 154.352 32.8491 165.536 40.9678 175.145C49.2521 184.59 59.359 189.312 71.2885 189.312C77.0876 189.312 82.4724 188.235 87.443 186.081C92.4136 183.927 96.2244 181.773 98.8754 179.619C101.692 177.465 103.432 176.388 104.095 176.388C105.917 176.388 106.828 177.217 106.828 178.873C106.828 180.53 105.089 183.098 101.609 186.578C98.1298 189.892 94.7332 192.543 91.4195 194.531C83.3008 199.667 73.3596 202.235 61.5958 202.235ZM177.945 201.49C161.045 201.49 147.541 196.105 137.435 185.335C127.493 174.4 122.523 161.393 122.523 146.316C122.523 131.238 127.659 118.066 137.932 106.799C148.37 95.5328 162.039 89.8994 178.939 89.8994C196.005 89.8994 210.254 94.7872 221.686 104.563C233.285 114.338 239.084 127.925 239.084 145.322C239.084 162.719 233.119 176.471 221.189 186.578C209.426 196.519 195.011 201.49 177.945 201.49ZM175.211 96.6097C166.595 96.6097 158.891 100.006 152.098 106.799C145.47 113.593 142.157 124.777 142.157 140.351C142.157 155.926 146.713 168.766 155.826 178.873C164.939 188.98 174.714 194.034 185.152 194.034C195.756 194.034 204.289 190.471 210.751 183.347C217.213 176.057 220.444 165.453 220.444 151.535C220.444 137.617 216.467 125.025 208.514 113.758C200.561 102.326 189.46 96.6097 175.211 96.6097ZM270.148 149.298L271.142 43.6727C271.142 39.8619 270.479 36.4653 269.154 33.4829C267.994 30.3349 266.669 28.4295 265.177 27.7667C263.686 27.104 260.372 26.7726 255.236 26.7726C253.414 26.7726 252.502 26.1927 252.502 25.0329C252.502 23.8731 252.585 23.0447 252.751 22.5476C253.082 22.0505 253.662 21.6363 254.491 21.305C255.319 20.8079 256.313 20.3937 257.473 20.0623C262.278 19.0682 267.248 17.3285 272.385 14.8432C280.503 11.0324 285.805 9.12695 288.291 9.12695C290.279 9.12695 291.273 10.701 291.273 13.849C291.273 14.5118 291.107 16.4172 290.776 19.5652C289.782 29.3408 289.285 40.0276 289.285 51.6257V65.5434L288.788 98.598V172.66C288.788 176.14 289.036 179.039 289.533 181.359C290.196 183.513 292.102 185.667 295.25 187.82C298.563 189.809 303.12 190.803 308.919 190.803C309.747 190.803 310.493 191.217 311.156 192.046C311.818 192.874 312.15 193.702 312.15 194.531C312.15 196.85 309.581 198.01 304.445 198.01L279.344 196.271C275.036 196.271 270.894 196.602 266.917 197.265C263.106 197.927 260.538 198.259 259.213 198.259C258.053 198.259 257.059 197.927 256.23 197.265C255.568 196.768 255.236 196.105 255.236 195.276C255.236 194.282 255.568 193.537 256.23 193.04C257.059 192.377 258.301 191.88 259.958 191.548C264.929 190.223 267.911 188.235 268.905 185.584C269.899 182.767 270.396 178.956 270.396 174.151L270.148 167.689V149.298ZM339.562 149.298L340.556 43.6727C340.556 39.8619 339.893 36.4653 338.568 33.4829C337.408 30.3349 336.082 28.4295 334.591 27.7667C333.1 27.104 329.786 26.7726 324.65 26.7726C322.827 26.7726 321.916 26.1927 321.916 25.0329C321.916 23.8731 321.999 23.0447 322.165 22.5476C322.496 22.0505 323.076 21.6363 323.904 21.305C324.733 20.8079 325.727 20.3937 326.887 20.0623C331.692 19.0682 336.662 17.3285 341.799 14.8432C349.917 11.0324 355.219 9.12695 357.705 9.12695C359.693 9.12695 360.687 10.701 360.687 13.849C360.687 14.5118 360.521 16.4172 360.19 19.5652C359.196 29.3408 358.699 40.0276 358.699 51.6257V65.5434L358.202 98.598V172.66C358.202 176.14 358.45 179.039 358.947 181.359C359.61 183.513 361.515 185.667 364.663 187.82C367.977 189.809 372.534 190.803 378.333 190.803C379.161 190.803 379.907 191.217 380.569 192.046C381.232 192.874 381.563 193.702 381.563 194.531C381.563 196.85 378.995 198.01 373.859 198.01L348.757 196.271C344.45 196.271 340.307 196.602 336.331 197.265C332.52 197.927 329.952 198.259 328.626 198.259C327.467 198.259 326.473 197.927 325.644 197.265C324.981 196.768 324.65 196.105 324.65 195.276C324.65 194.282 324.981 193.537 325.644 193.04C326.473 192.377 327.715 191.88 329.372 191.548C334.343 190.223 337.325 188.235 338.319 185.584C339.313 182.767 339.81 178.956 339.81 174.151L339.562 167.689V149.298ZM446.065 201.738C431.484 201.738 419.058 197.265 408.785 188.318C398.678 179.37 393.625 166.447 393.625 149.547C393.625 132.481 398.264 118.232 407.543 106.799C416.987 95.3671 429.165 89.6509 444.077 89.6509C451.036 89.6509 457.332 90.8935 462.965 93.3788C468.764 95.8641 473.238 98.9294 476.386 102.574C479.534 106.054 482.185 109.782 484.339 113.758C487.984 120.552 489.806 125.688 489.806 129.167C489.806 132.15 486.41 133.641 479.617 133.641H415.744C414.419 133.641 413.59 133.806 413.259 134.138C413.093 134.304 413.01 135.049 413.01 136.375C413.01 151.949 417.153 164.21 425.437 173.157C433.887 182.104 443.745 186.578 455.012 186.578C461.971 186.578 469.013 184.755 476.137 181.11C483.427 177.299 487.238 175.394 487.57 175.394C489.226 175.394 490.055 176.14 490.055 177.631C490.055 179.619 488.232 182.353 484.587 185.832C480.942 189.146 477.463 191.88 474.149 194.034C466.196 199.17 456.835 201.738 446.065 201.738ZM417.732 127.676L461.474 126.185C463.793 126.185 465.202 126.019 465.699 125.688C466.362 125.191 466.693 124.362 466.693 123.203C466.693 118.232 464.373 112.433 459.734 105.805C455.095 99.1779 448.633 95.8641 440.349 95.8641C432.064 95.8641 425.685 99.1779 421.212 105.805C416.738 112.267 414.502 118.398 414.502 124.197C414.502 126.516 415.578 127.676 417.732 127.676ZM560.841 202.235C545.267 202.235 532.757 197.513 523.313 188.069C514.035 178.625 509.396 165.867 509.396 149.795C509.396 133.558 514.698 119.64 525.302 108.042C536.071 96.2784 549.989 90.3965 567.055 90.3965C572.854 90.3965 579.067 91.2249 585.694 92.8818C592.488 94.5386 595.967 96.4441 596.133 98.598C596.464 102.574 596.63 107.379 596.63 113.013C596.63 118.48 595.719 121.214 593.896 121.214C592.239 121.214 590.748 120.137 589.422 117.983C586.606 113.178 581.221 109.036 573.268 105.557C565.481 101.912 558.605 100.089 552.64 100.089C549.326 100.089 546.095 101.332 542.947 103.817C539.799 106.302 537.231 109.036 535.243 112.019C530.438 118.977 528.035 128.836 528.035 141.594C528.035 154.352 532.095 165.536 540.213 175.145C548.498 184.59 558.605 189.312 570.534 189.312C576.333 189.312 581.718 188.235 586.689 186.081C591.659 183.927 595.47 181.773 598.121 179.619C600.938 177.465 602.677 176.388 603.34 176.388C605.163 176.388 606.074 177.217 606.074 178.873C606.074 180.53 604.334 183.098 600.855 186.578C597.375 189.892 593.979 192.543 590.665 194.531C582.546 199.667 572.605 202.235 560.841 202.235ZM626.519 104.811L621.797 105.06C618.981 105.06 617.572 103.9 617.572 101.58C617.572 99.9235 618.318 98.5151 619.809 97.3553C626.105 93.2131 632.401 86.9999 638.697 78.7155C641.348 74.9047 643.42 72.1709 644.911 70.514C646.568 68.6915 648.224 67.7802 649.881 67.7802C651.538 67.7802 652.367 69.6856 652.367 73.4964C652.367 73.4964 652.035 78.2185 651.373 87.6626C651.373 89.9823 651.787 91.3906 652.615 91.8877C653.609 92.3847 656.592 92.6332 661.562 92.6332H670.261C677.717 92.6332 682.273 92.219 683.93 91.3906C686.912 89.8994 688.735 89.1538 689.398 89.1538C691.055 89.1538 691.883 90.0651 691.883 91.8877C691.883 93.2132 690.806 95.8641 688.652 99.8406C686.498 103.651 684.924 105.557 683.93 105.557C676.474 105.557 671.255 105.391 668.273 105.06C665.29 104.728 663.302 104.563 662.308 104.563C661.314 104.397 660.402 104.314 659.574 104.314C658.911 104.148 658.414 104.066 658.083 104.066L657.586 103.817C654.438 103.817 652.367 104.314 651.373 105.308C650.544 106.302 650.13 108.539 650.13 112.019L649.136 158.245C649.136 169.015 650.461 176.554 653.112 180.862C655.929 185.004 661.728 187.075 670.509 187.075C673.989 187.075 677.8 186.329 681.942 184.838C686.25 183.181 688.569 182.353 688.901 182.353C690.558 182.353 691.386 183.43 691.386 185.584C691.386 187.738 688.486 190.637 682.687 194.282C677.054 197.762 670.924 199.501 664.296 199.501C641.928 199.501 630.745 189.809 630.745 170.423V166.695L631.739 108.788C631.739 107.131 631.407 106.054 630.745 105.557C630.082 105.06 628.673 104.811 626.519 104.811ZM735.325 198.01L717.68 198.507C711.052 198.507 707.739 197.43 707.739 195.276C707.739 192.957 708.981 191.383 711.467 190.554C711.632 190.554 711.964 190.471 712.461 190.306C716.271 188.98 718.757 186.992 719.917 184.341C721.076 181.69 721.656 168.849 721.656 145.819V123.948C721.656 119.143 721.076 115.332 719.917 112.516C718.757 109.699 717.68 107.959 716.686 107.297C715.692 106.634 713.952 106.137 711.467 105.805C709.147 105.308 707.407 104.894 706.247 104.563C705.253 104.066 704.756 103.403 704.756 102.574C704.756 101.58 704.922 100.835 705.253 100.338C705.75 99.8406 706.579 99.3436 707.739 98.8465C709.064 98.1838 710.39 97.6039 711.715 97.1068C716.354 95.7813 720.165 94.4558 723.147 93.1303C726.13 91.8048 728.367 90.8107 729.858 90.1479C731.515 89.4852 732.592 88.9881 733.089 88.6568C734.248 88.1597 735.657 87.9112 737.314 87.9112C739.799 87.9112 741.042 89.4852 741.042 92.6332L739.55 104.563V172.66C739.55 177.631 740.296 181.524 741.787 184.341C743.444 187.158 745.101 188.897 746.758 189.56C748.58 190.223 750.652 190.637 752.971 190.803C755.291 190.969 756.782 191.051 757.445 191.051C759.764 191.383 760.924 192.543 760.924 194.531C760.924 197.347 759.516 198.756 756.699 198.756L752.971 198.507L735.325 198.01ZM731.1 64.5493C727.787 64.5493 724.887 62.8096 722.402 59.3301C720.082 55.8507 718.922 53.034 718.922 50.8801C718.922 48.5605 720.331 45.661 723.147 42.1815C726.13 38.5364 728.864 36.7139 731.349 36.7139C734 36.7139 736.568 38.4536 739.053 41.933C741.539 45.2467 742.781 48.2291 742.781 50.8801C742.781 53.5311 741.207 56.5135 738.059 59.8272C734.911 62.9753 732.592 64.5493 731.1 64.5493ZM830.338 201.49C813.438 201.49 799.934 196.105 789.827 185.335C779.886 174.4 774.916 161.393 774.916 146.316C774.916 131.238 780.052 118.066 790.324 106.799C800.763 95.5328 814.432 89.8994 831.332 89.8994C848.398 89.8994 862.647 94.7872 874.079 104.563C885.677 114.338 891.476 127.925 891.476 145.322C891.476 162.719 885.512 176.471 873.582 186.578C861.818 196.519 847.404 201.49 830.338 201.49ZM827.604 96.6097C818.988 96.6097 811.284 100.006 804.491 106.799C797.863 113.593 794.55 124.777 794.55 140.351C794.55 155.926 799.106 168.766 808.219 178.873C817.331 188.98 827.107 194.034 837.545 194.034C848.149 194.034 856.682 190.471 863.144 183.347C869.606 176.057 872.837 165.453 872.837 151.535C872.837 137.617 868.86 125.025 860.907 113.758C852.954 102.326 841.853 96.6097 827.604 96.6097ZM962.774 197.016L944.631 196.022C940.323 196.022 934.607 196.188 927.482 196.519L916.795 197.016C914.31 197.016 913.068 196.271 913.068 194.779C913.068 193.288 913.482 192.377 914.31 192.046C915.139 191.714 916.133 191.466 917.293 191.3C918.618 191.134 919.861 190.637 921.021 189.809C924.169 187.82 925.908 181.856 926.24 171.915C926.571 161.808 926.737 155.18 926.737 152.032V116.244C926.737 110.942 925.743 107.379 923.754 105.557C921.932 103.734 919.364 102.823 916.05 102.823H913.565C910.417 102.823 908.843 101.912 908.843 100.089C908.843 98.4323 910.582 97.3553 914.062 96.8583C917.707 96.3612 920.523 95.8641 922.512 95.3671C924.666 94.7043 927.399 93.7102 930.713 92.3847C934.193 90.8935 936.926 89.6509 938.915 88.6568C941.069 87.6626 942.477 87.1656 943.14 87.1656H943.637C945.128 87.1656 945.874 88.1597 945.874 90.1479L945.377 100.835C945.377 105.143 945.708 107.297 946.371 107.297C947.033 107.297 947.696 106.882 948.359 106.054C950.844 102.574 954.158 99.5921 958.3 97.1068C965.756 92.4676 972.881 90.1479 979.674 90.1479C986.467 90.1479 992.514 91.2249 997.816 93.3788C1003.12 95.3671 1007.26 97.9352 1010.24 101.083C1013.23 104.066 1015.71 107.545 1017.7 111.522C1021.01 118.149 1022.67 124.942 1022.67 131.901V134.386L1022.92 147.559V172.909C1022.92 179.205 1023.75 183.595 1025.4 186.081C1027.23 188.4 1031.45 190.057 1038.08 191.051C1041.39 191.548 1043.05 192.791 1043.05 194.779C1043.05 196.436 1041.39 197.265 1038.08 197.265L1017.7 196.022L998.562 197.016C995.248 197.016 993.591 195.939 993.591 193.785C993.591 192.294 994.586 191.3 996.574 190.803L999.805 190.057C1003.45 188.897 1005.27 183.347 1005.27 173.406V139.854C1005.27 127.096 1002.12 117.486 995.828 111.025C989.532 104.397 982.408 101.083 974.455 101.083C966.502 101.083 959.874 102.989 954.572 106.799C949.27 110.61 946.039 114.173 944.879 117.486C943.72 120.8 943.14 133.475 943.14 155.511V164.956C943.14 173.24 943.968 179.37 945.625 183.347C947.448 187.323 951.341 189.56 957.306 190.057C958.963 190.057 961.034 190.389 963.519 191.051C966.17 191.548 967.496 192.46 967.496 193.785C967.496 195.939 965.922 197.016 962.774 197.016ZM1129.49 97.3553L1130.49 112.267C1130.49 115.084 1130.16 116.989 1129.49 117.983C1128.83 118.977 1127.84 119.475 1126.51 119.475C1125.35 119.475 1124.03 118.315 1122.53 115.995C1121.21 113.51 1119.63 110.859 1117.81 108.042C1116.16 105.225 1113.34 102.657 1109.36 100.338C1105.55 97.8524 1101.16 96.6097 1096.19 96.6097C1091.22 96.6097 1087.16 97.8524 1084.01 100.338C1080.86 102.657 1079.29 105.225 1079.29 108.042C1079.29 110.859 1079.54 113.178 1080.04 115.001C1080.53 116.658 1081.36 118.149 1082.52 119.475C1083.85 120.8 1084.92 121.96 1085.75 122.954C1086.75 123.782 1088.32 124.694 1090.47 125.688C1092.63 126.682 1094.2 127.428 1095.2 127.925C1096.36 128.256 1098.18 128.919 1100.66 129.913C1115.74 135.215 1125.43 140.434 1129.74 145.57C1134.05 150.541 1136.2 157.748 1136.2 167.192C1136.2 176.637 1131.81 185.335 1123.03 193.288C1117.07 198.424 1108.87 200.993 1098.43 200.993C1091.3 200.993 1083.35 199.253 1074.57 195.773C1072.08 194.779 1070.59 194.282 1070.09 194.282C1069.76 194.117 1069.1 193.868 1068.11 193.537C1067.28 193.205 1066.61 193.04 1066.12 193.04C1065.79 192.874 1065.29 192.625 1064.63 192.294C1063.96 191.963 1063.47 191.714 1063.14 191.548C1062.97 191.217 1062.72 190.803 1062.39 190.306C1061.89 189.477 1061.64 188.152 1061.64 186.329V164.707C1061.64 162.885 1061.98 161.393 1062.64 160.234C1063.47 158.908 1064.54 158.245 1065.87 158.245C1067.19 158.245 1068.11 158.66 1068.6 159.488C1069.27 160.151 1069.85 161.642 1070.34 163.962C1070.84 166.281 1071.34 167.938 1071.83 168.932C1077.96 184.175 1086.58 191.797 1097.68 191.797C1102.82 191.797 1107.71 190.471 1112.34 187.82C1116.98 185.004 1119.3 180.696 1119.3 174.897C1119.3 168.932 1117.4 164.127 1113.59 160.482C1109.78 156.837 1105.14 154.02 1099.67 152.032C1094.2 149.878 1088.73 147.724 1083.27 145.57C1077.8 143.251 1073.16 139.937 1069.35 135.629C1065.54 131.155 1063.63 125.605 1063.63 118.977C1063.63 109.699 1067.36 102.243 1074.82 96.6097C1082.27 90.9764 1090.47 88.1597 1099.42 88.1597C1108.37 88.1597 1115.16 88.9053 1119.8 90.3965C1124.44 91.722 1127.17 92.9646 1128 94.1244C1129 95.2842 1129.49 96.3612 1129.49 97.3553Z" fill="#BFA6A1"/>
</g>
<defs>
<clipPath id="clip0_805_584">
<rect width="557" height="274" fill="white" transform="translate(0 0.0161133)"/>
</clipPath>
</defs>
</svg>
