<svg width="307" height="252" viewBox="0 0 307 252" fill="none" xmlns="http://www.w3.org/2000/svg">
<mask id="path-1-inside-1_207_472" fill="white">
<path d="M59.3518 181.902C46.218 170.441 39.1665 157.588 39.1665 136.751C39.1665 100.086 70.4836 67.2236 116.057 50.9757L127.444 65.4113C84.9181 84.3096 76.6042 108.833 73.2762 124.296C80.1236 121.383 89.0877 120.367 97.8861 121.038C120.889 122.787 139.022 138.302 139.022 157.588C139.022 167.312 134.32 176.638 125.95 183.514C117.58 190.39 106.229 194.253 94.3922 194.253C80.7101 194.253 67.6146 189.12 59.3518 181.902ZM186.864 181.902C173.731 170.441 166.679 157.588 166.679 136.751C166.679 100.086 197.996 67.2236 243.569 50.9757L254.956 65.4113C212.431 84.3096 204.117 108.833 200.801 124.296C207.649 121.383 216.613 120.367 225.399 121.038C248.402 122.777 266.521 138.291 266.521 157.588C266.521 167.312 261.819 176.638 253.45 183.514C245.08 190.39 233.729 194.253 221.892 194.253C208.21 194.253 195.114 189.12 186.852 181.902"/>
</mask>
<path d="M59.3518 181.902L60.0297 181.126L60.0293 181.126L59.3518 181.902ZM116.057 50.9757L116.866 50.3375L116.407 49.7567L115.711 50.0051L116.057 50.9757ZM127.444 65.4113L127.862 66.3529L129.074 65.8144L128.253 64.7732L127.444 65.4113ZM73.2762 124.296L72.2688 124.079L71.8507 126.022L73.6794 125.244L73.2762 124.296ZM97.8861 121.038L97.8078 122.065L97.808 122.065L97.8861 121.038ZM94.3922 194.253V195.283V194.253ZM243.569 50.9757L244.378 50.3375L243.92 49.7567L243.223 50.0051L243.569 50.9757ZM254.956 65.4113L255.375 66.3529L256.586 65.8144L255.765 64.7732L254.956 65.4113ZM200.801 124.296L199.794 124.08L199.378 126.021L201.205 125.244L200.801 124.296ZM225.399 121.038L225.32 122.065L225.321 122.065L225.399 121.038ZM266.521 157.588H267.552H266.521ZM221.892 194.253V195.283V194.253ZM60.0293 181.126C53.539 175.462 48.5953 169.493 45.2667 162.405C41.9386 155.317 40.197 147.05 40.197 136.751H38.1362C38.1362 147.289 39.9202 155.867 43.4013 163.281C46.8819 170.693 52.0308 176.881 58.6743 182.678L60.0293 181.126ZM40.197 136.751C40.197 100.713 71.0246 68.1247 116.403 51.9462L115.711 50.0051C69.9427 66.3225 38.1362 99.4591 38.1362 136.751H40.197ZM115.248 51.6138L126.635 66.0495L128.253 64.7732L116.866 50.3375L115.248 51.6138ZM127.025 64.4697C105.63 73.9776 92.7691 84.9343 84.8362 95.5242C76.9021 106.116 73.949 116.273 72.2688 124.079L74.2835 124.512C75.9314 116.856 78.7993 107.02 86.4855 96.7598C94.1729 86.4977 106.732 75.7433 127.862 66.3529L127.025 64.4697ZM73.6794 125.244C80.3312 122.415 89.1188 121.403 97.8078 122.065L97.9644 120.01C89.0566 119.331 79.916 120.352 72.8729 123.347L73.6794 125.244ZM97.808 122.065C120.476 123.789 137.991 139.022 137.991 157.588H140.052C140.052 137.582 121.303 121.785 97.9642 120.01L97.808 122.065ZM137.991 157.588C137.991 166.966 133.458 176.012 125.296 182.718L126.604 184.31C135.181 177.264 140.052 167.658 140.052 157.588H137.991ZM125.296 182.718C117.128 189.428 106.014 193.223 94.3922 193.223V195.283C106.444 195.283 118.033 191.352 126.604 184.31L125.296 182.718ZM94.3922 193.223C80.9437 193.223 68.0932 188.17 60.0297 181.126L58.6739 182.678C67.136 190.07 80.4766 195.283 94.3922 195.283V193.223ZM187.542 181.126C181.052 175.462 176.108 169.493 172.779 162.405C169.451 155.317 167.71 147.05 167.71 136.751H165.649C165.649 147.289 167.433 155.867 170.914 163.281C174.394 170.693 179.543 176.881 186.187 182.678L187.542 181.126ZM167.71 136.751C167.71 100.713 198.537 68.1247 243.915 51.9462L243.223 50.0051C197.455 66.3225 165.649 99.4591 165.649 136.751H167.71ZM242.76 51.6138L254.147 66.0495L255.765 64.7732L244.378 50.3375L242.76 51.6138ZM254.538 64.4697C233.143 73.9776 220.282 84.9343 212.35 95.5243C204.418 106.116 201.468 116.273 199.794 124.08L201.809 124.512C203.45 116.856 206.315 107.02 214 96.7597C221.685 86.4977 234.244 75.7433 255.375 66.3529L254.538 64.4697ZM201.205 125.244C207.857 122.415 216.644 121.403 225.32 122.065L225.477 120.01C216.582 119.331 207.441 120.352 200.398 123.347L201.205 125.244ZM225.321 122.065C247.988 123.779 265.491 139.011 265.491 157.588H267.552C267.552 137.572 248.816 121.775 225.476 120.01L225.321 122.065ZM265.491 157.588C265.491 166.966 260.958 176.012 252.796 182.718L254.104 184.31C262.681 177.264 267.552 167.658 267.552 157.588H265.491ZM252.796 182.718C244.628 189.428 233.514 193.223 221.892 193.223V195.283C233.943 195.283 245.532 191.352 254.104 184.31L252.796 182.718ZM221.892 193.223C208.444 193.223 195.593 188.17 187.53 181.126L186.174 182.678C194.636 190.07 207.976 195.283 221.892 195.283V193.223Z" fill="#DED2B2" mask="url(#path-1-inside-1_207_472)"/>
</svg>
