<?xml version="1.0" encoding="utf-8"?>
<!-- Generator: Adobe Illustrator 23.0.3, SVG Export Plug-In . SVG Version: 6.00 Build 0)  -->
<svg version="1.1" id="Layer_1" xmlns="http://www.w3.org/2000/svg" xmlns:xlink="http://www.w3.org/1999/xlink" x="0px" y="0px"
	 viewBox="0 0 1200 1200" enable-background="new 0 0 1200 1200" xml:space="preserve">
<g>
	<path fill="#6BC3CE" d="M658.901,1137.335c-4.577-2.384-7.199-3.226-9.17-4.847c-6.595-5.467-13.032-11.125-19.548-16.671
		c-2.273-1.923-4.545-3.846-6.834-5.737c-5.594-4.609-9.122-10.203-10.521-17.339c-1.335-6.786-3.528-13.413-4.577-20.247
		c-6.738-43.879-14.303-87.647-18.229-131.923c-2.638-29.862-6.214-59.644-8.439-89.538c-4.815-64.428-9.806-128.856-9.933-193.522
		c0-5.181-0.62-10.362-0.874-15.543c-0.811-16.147-0.54-32.198,0.652-48.392c1.669-22.392,1.112-44.96,1.51-67.447
		c0.095-5.07,0.27-10.155,0.397-15.241c6.182-2.241,12.015-3.989,17.974-4.275c4.561-0.222,9.218,0.413,14.16,2.352
		c0.429,4.434,1.208,8.852,1.224,13.27c0.064,30.577-0.413,61.154,0.064,91.731c0.493,31.721,2.003,63.427,2.845,95.148
		c1.351,50.744,2.066,101.521,3.925,152.249c1.176,31.658,1.987,63.411,8.328,94.671c1.939,9.567,2.082,19.5,3.671,29.163
		c7.755,47.216,15.209,94.528,30.402,140.139C656.962,1128.435,657.519,1131.693,658.901,1137.335z"/>
	<path fill="#1B8087" d="M612.543,164.958c-5.848,12.746-6.325,13.334-20.914,26.302c-1.923-1.939-3.766-3.925-5.531-5.975
		c-8.614-9.885-15.654-20.883-22.043-32.595c5.467-10.791,13.413-19.071,22.154-29.417c2.273,2.479,4.323,5.022,6.214,7.597
		C600.687,142.216,605.789,154.246,612.543,164.958z"/>
	<path fill="#1B8087" d="M641.722,496.839c-3.163,1.955-4.895,3.957-6.643,3.973c-7.422,0.048-14.971,0.222-22.265-0.954
		c-11.443-1.843-22.742-2.177-34.105-0.731c-2.304,0.286-4.609,0.652-6.929,1.081c-6.738,1.271-13.668,1.669-20.533,1.875
		c-3.226,0.095-6.484-1.192-9.218-1.748c-1.78-4.18-0.238-6.357,2.336-8.073c1.43-0.938,2.892-1.907,4.482-2.527
		c10.505-4.164,21.026-6.691,31.562-7.612c16.894-1.51,33.803,1.049,50.681,7.326C634.554,490.736,637.367,493.74,641.722,496.839z"
		/>
	<path fill="#16636D" d="M612.893,65.694c-3.814,8.566-8.757,16.29-13.906,23.823c-3.115,4.577-6.309,9.075-9.361,13.667
		c-9.631-5.626-19.818-20.93-26.35-39.397c6.468-6.055,14.78-4.704,22.567-4.863c6.278-0.127,12.603-0.254,18.753,1.987
		C607.41,61.927,610.191,63.453,612.893,65.694z"/>
	<path fill="#1B8087" d="M607.998,226.255c-3.687,5.515-7.454,11.125-11.204,16.766c-3.449,5.181-6.881,10.378-10.171,15.352
		c-2.082-0.779-3.798-1.414-5.26-2.002c-7.088-2.797-8.471-4.243-16.512-12.666c6.007-7.438,12.046-14.923,18.387-22.79
		c3.004-3.719,6.055-7.501,9.218-11.427C599.082,214.796,604.231,219.151,607.998,226.255z"/>
	<path fill="#1B8087" d="M585.51,199.413c-0.254,0.556-0.524,1.097-0.811,1.637c-5.848,11.649-14.494,21.105-23.457,31.372
		c-3.528-13.874-3.766-35.678-0.922-68.909c6.007,5.848,9.17,12.491,13.334,18.292c3.814,5.324,7.342,10.839,11.252,16.719
		C585.113,198.809,585.304,199.111,585.51,199.413z"/>
	<path fill="#1B8087" d="M607.203,290.381c-2.749,10.727-7.867,17.799-11.983,25.285c-2.13,3.878-5.086,7.31-8.026,11.427
		c-2.416-1.351-4.688-2.702-6.818-4.164c-4.291-2.924-7.946-6.293-10.839-11.045c1.065-2.559,1.939-5.276,3.274-7.755
		c2.495-4.656,5.054-9.297,7.628-13.985c2.161-3.91,4.354-7.867,6.579-11.888C595.284,280.496,600.068,286.36,607.203,290.381z"/>
	<path fill="#1B8087" d="M617.517,83.334c-0.032,21.137-0.207,42.29-0.35,63.427c-1.128,0.413-2.257,0.826-3.369,1.224
		c-7.342-10.012-13.254-20.883-19.182-32.071c-0.493-0.938-0.985-1.859-1.478-2.797c0.89-1.843,1.812-3.639,2.765-5.388
		c5.388-9.853,11.935-18.594,18.674-27.192C616.103,81.936,617.517,82.635,617.517,83.334z"/>
	<path fill="#1B8087" d="M581.426,113.435c-4.561,11.077-12.841,18.292-20.613,26.429c-1.208-18.737-1.859-36.87-1.287-56.529
		c2.749,2.177,4.323,2.908,5.149,4.164C570.365,96.096,575.895,104.821,581.426,113.435z"/>
	<path fill="#1B8087" d="M606.981,411.147c-7.183,9.996-13.397,19.277-22.663,27.367c-0.842-1.192-1.653-2.304-2.416-3.353
		c-1.796-2.447-3.401-4.656-4.784-6.977c-2.209-3.671-2.4-7.644-0.032-11.395c1.558-2.463,3.147-4.911,4.815-7.501
		c2.241-3.417,4.641-7.088,7.39-11.331C596.19,403.106,601.116,406.777,606.981,411.147z"/>
	<path fill="#1B8087" d="M609.031,355.603c-6.214,10.616-13.588,19.071-21.645,28.495c-2.018-1.526-3.91-2.972-5.848-4.434
		c-1.764-1.351-3.576-2.733-5.515-4.211c1.748-3.941,3.465-7.771,5.197-11.633c2.908-6.5,5.864-13.127,9.186-20.565
		C597.731,348.102,602.896,351.535,609.031,355.603z"/>
	<path fill="#1B8087" d="M612.611,279.769c-10.487-3.769-10.449-3.821-18.836-13.642c3.618-11.802,10.839-21.754,18.647-31.529
		c1.499,1.254,3.056,1.978,3.019,2.609C614.611,251.294,613.606,265.371,612.611,279.769z"/>
	<path fill="#1B8087" d="M579.042,270.007c-4.052,16.194-6.135,20.136-15.543,29.687c-0.493-2.622-1.033-4.656-1.224-6.738
		c-1.065-11.888-2.066-23.791-3.051-35.138c4.18-3.051,5.976-0.27,7.946,1.446C571.032,262.617,574.751,266.113,579.042,270.007z"/>
	<path fill="#16636D" d="M580.79,346.243c-2.877,7.088-4.434,15.193-14.351,22.853v-42.862c6.818,0.89,11.697,3.576,14.081,7.485
		C582.57,337.089,582.777,341.379,580.79,346.243z"/>
	<path fill="#1B8087" d="M598.357,199.68c3.529-6.834,9.54-11.5,15.378-17.964c4.011,15.187,4.057,19.582,0.913,34.573
		C605.404,210.383,605.404,210.383,598.357,199.68z"/>
	<path fill="#1B8087" d="M606.633,430.534c0.998,10.686,0.603,21.374-0.355,33.373c-8.708-2.804-11.795-9.397-15.755-16.218
		c4.26-6.166,8.445-12.223,12.63-18.281C604.314,429.783,605.474,430.158,606.633,430.534z"/>
	<path fill="#1B8087" d="M595.029,334.047c2.401-8.5,7.674-14.857,13.094-21.487c2.842,9.911,1.757,19.379,1.5,29.398
		C602.388,342.97,598.841,338.771,595.029,334.047z"/>
	<path fill="#1B8087" d="M607.15,397.339c-6.031,0.768-8.782-2.4-11.412-7.285c2.68-5.557,6.046-10.953,12.757-16.522
		C609.789,382.883,610.278,390.196,607.15,397.339z"/>
	<path fill="#1B8087" d="M581.823,391.933c-0.032,0.079-0.064,0.143-0.079,0.223c-2.416,6.15-4.657,11.554-10.426,16.798
		c-3.083-8.359-2.082-15.289-1.192-25.905c5.547,4.212,8.439,6.405,11.602,8.82C581.76,391.885,581.791,391.901,581.823,391.933z"/>
	<path fill="#1B8087" d="M597.668,472.539h-19.77c1.319-3.051,2.432-5.594,3.401-7.835c0.874-2.002,1.653-3.798,2.384-5.515
		c2.082,0.254,3.401,0.016,4.132,0.572C591.883,462.782,594.998,466.564,597.668,472.539z"/>
	<path fill="#1B8087" d="M573.956,456.599c-0.27-4.911-0.477-8.645-0.699-12.873C580.901,448.113,581.013,448.685,573.956,456.599z"
		/>
	<path fill="#16636D" d="M560.813,139.864c-1.208-18.737-1.859-36.87-1.287-56.529c2.749,2.177,4.323,2.908,5.149,4.164
		c5.69,8.598,11.22,17.323,16.751,25.936C576.865,124.512,568.585,131.727,560.813,139.864z"/>
	<path fill="#16636D" d="M567.17,259.263c3.862,3.353,7.581,6.85,11.872,10.743c-4.052,16.194-6.135,20.136-15.543,29.687
		c-0.493-2.622-1.033-4.656-1.224-6.738c-1.065-11.888-2.066-23.791-3.051-35.138C563.404,254.766,565.2,257.547,567.17,259.263z"/>
	<path fill="#16636D" d="M573.956,456.599c-0.27-4.911-0.477-8.645-0.699-12.873C580.901,448.113,581.013,448.685,573.956,456.599z"
		/>
	<path fill="#16636D" d="M548.846,489.735c10.505-4.164,21.026-6.691,31.562-7.612c-0.493,7.31-1.081,12.841-1.701,17.005
		c-2.304,0.286-4.609,0.652-6.929,1.081c-6.738,1.271-13.668,1.669-20.533,1.875c-3.226,0.095-6.484-1.192-9.218-1.748
		c-1.78-4.18-0.238-6.357,2.336-8.073C545.795,491.324,547.257,490.355,548.846,489.735z"/>
	<path fill="#16636D" d="M580.44,290.142c-0.143,10.68-0.175,21.614-0.064,32.786c-4.291-2.924-7.946-6.293-10.839-11.045
		c1.065-2.559,1.939-5.276,3.274-7.755C575.307,299.471,577.866,294.831,580.44,290.142z"/>
	<path fill="#16636D" d="M580.52,333.719c0.064,4.148,0.159,8.312,0.27,12.523c-2.877,7.088-4.434,15.193-14.351,22.853v-42.862
		C573.257,327.124,578.136,329.81,580.52,333.719z"/>
	<path fill="#16636D" d="M581.219,363.82c0.127,5.483,0.222,10.759,0.318,15.845c-1.764-1.351-3.576-2.733-5.515-4.211
		C577.771,371.511,579.487,367.681,581.219,363.82z"/>
	<path fill="#16636D" d="M577.898,472.539c1.319-3.051,2.432-5.594,3.401-7.835c-0.095,2.765-0.207,5.372-0.334,7.835H577.898z"/>
	<path fill="#16636D" d="M564.85,243.705c6.007-7.438,12.046-14.923,18.387-22.79c-0.763,11.395-1.398,23.219-1.875,35.456
		C574.274,253.574,572.892,252.128,564.85,243.705z"/>
	<path fill="#16636D" d="M581.744,392.156c-2.416,6.15-4.657,11.554-10.426,16.798c-3.083-8.359-2.082-15.289-1.192-25.905
		c5.547,4.212,8.439,6.405,11.602,8.82C581.728,391.965,581.728,392.06,581.744,392.156z"/>
	<path fill="#16636D" d="M581.903,409.288c0.064,9.472,0.064,18.07,0,25.873c-1.796-2.447-3.401-4.656-4.784-6.977
		c-2.209-3.671-2.4-7.644-0.032-11.395C578.645,414.326,580.234,411.878,581.903,409.288z"/>
	<path fill="#16636D" d="M573.654,181.804c3.814,5.324,7.342,10.839,11.252,16.719c-0.064,0.842-0.127,1.685-0.207,2.527
		c-5.848,11.649-14.494,21.105-23.457,31.372c-3.528-13.874-3.766-35.678-0.922-68.909
		C566.328,169.36,569.491,176.003,573.654,181.804z"/>
	<path fill="#16636D" d="M586.209,123.272c2.273,2.479,4.323,5.022,6.214,7.597c-2.273,16.306-4.45,34.502-6.325,54.416
		c-8.614-9.885-15.654-20.883-22.043-32.595C569.522,141.898,577.469,133.618,586.209,123.272z"/>
	<path fill="#1B8087" d="M593.138,113.117c0.89-1.843,1.812-3.639,2.765-5.388c-0.429,2.654-0.858,5.388-1.287,8.185
		C594.124,114.976,593.631,114.054,593.138,113.117z"/>
	<path fill="#16636D" d="M604.597,60.91c-1.653,7.74-3.576,17.323-5.61,28.606c-3.115,4.577-6.309,9.075-9.361,13.667
		c-9.631-5.626-19.818-20.93-26.35-39.397c6.468-6.055,14.78-4.704,22.567-4.863C592.121,58.797,598.447,58.669,604.597,60.91z"/>
	<path fill="#BDEBF2" d="M658.901,1137.335c-4.577-2.384-7.199-3.226-9.17-4.847c-6.595-5.467-13.032-11.125-19.548-16.671
		c-42.576-199.259-39.795-544.633-38.873-609.204c4.561-0.222,9.218,0.413,14.16,2.352c0.429,4.434,1.208,8.852,1.224,13.27
		c0.064,30.577-0.413,61.154,0.064,91.731c0.493,31.721,2.003,63.427,2.845,95.148c1.351,50.744,2.066,101.521,3.925,152.249
		c1.176,31.658,1.987,63.411,8.328,94.671c1.939,9.567,2.082,19.5,3.671,29.163c7.755,47.216,15.209,94.528,30.402,140.139
		C656.962,1128.435,657.519,1131.693,658.901,1137.335z"/>
	<path fill="#1B1B60" d="M618.005,475.047c5.587,1.924,10.582,3.262,15.236,5.359c4.143,1.867,8.416,4.013,11.736,7.023
		c7.536,6.834,5.23,17.479-4.439,20.508c-4.298,1.346-9.091,1.115-13.661,1.584c-3.331,0.342-6.665,0.657-10.116,0.995
		c-2.893,6.668-2.232,13.117-2.229,19.333c0.02,31.76-0.13,63.531,0.637,95.278c0.753,31.161,2.685,62.293,3.823,93.447
		c1.032,28.241,1.619,56.498,2.537,84.743c1.163,35.783,1.802,71.601,3.976,107.325c1.117,18.37,4.554,36.661,7.85,54.824
		c7.934,43.721,16.258,87.373,24.752,130.99c2.202,11.308,5.613,22.381,8.455,33.565c0.993,3.907,2.475,7.792,2.724,11.751
		c0.161,2.569-0.763,6.299-2.569,7.578c-1.654,1.171-5.734,0.647-7.732-0.669c-17.927-11.803-33.664-26.286-48.668-41.515
		c-3.045-3.091-4.93-7.797-6.159-12.098c-2.216-7.752-3.94-15.7-5.151-23.675c-4.679-30.815-9.182-61.659-13.541-92.521
		c-3.632-25.713-7.166-51.442-10.393-77.209c-4.379-34.972-6.542-70.091-7.512-105.342c-0.618-22.472-3.333-44.882-4.972-67.33
		c-0.715-9.788-1.514-19.599-1.54-29.402c-0.076-28.876-0.184-57.762,0.481-86.627c0.612-26.539,2.31-53.052,3.31-79.584
		c0.257-6.819-0.314-13.67-0.533-21.533c-5.435-0.614-9.852-1.181-14.284-1.591c-3.443-0.318-6.972-0.082-10.345-0.718
		c-8.511-1.605-12.006-10.952-5.917-17.069c4.803-4.825,10.723-8.652,16.519-12.336c3.823-2.43,8.306-3.819,13.379-6.067
		c0.157-3.808,0.667-7.715,0.424-11.575c-2.179-34.565-4.487-69.123-6.765-103.682c-1.443-21.888-2.619-43.799-4.413-65.658
		c-3.025-36.86-4.796-73.705-3.52-110.731c1.213-35.176,1.172-70.395,1.672-105.596c0.025-1.732-0.149-3.471-0.058-5.197
		c0.554-10.568,4.403-17.152,14.219-19.095c17.082-3.38,34.396-4.275,51.005,3.051c7,3.088,11.028,8.169,10.597,16.17
		c-0.062,1.147,0.142,2.307,0.15,3.461c0.248,37.536,1.46,75.099,0.449,112.602c-0.979,36.341-4.748,72.598-6.367,108.934
		c-1.696,38.062-2.355,76.171-3.337,114.263c-0.432,16.737-0.631,33.481-0.743,50.224
		C616.944,465.718,617.623,470.206,618.005,475.047z M658.897,1137.342c-1.383-5.657-1.941-8.909-2.971-12.004
		c-15.183-45.621-22.645-92.919-30.405-140.143c-1.588-9.662-1.723-19.589-3.666-29.163c-6.344-31.266-7.157-63.016-8.321-94.669
		c-1.866-50.731-2.583-101.503-3.935-152.253c-0.844-31.72-2.351-63.427-2.847-95.151c-0.478-30.568,0.013-61.15-0.06-91.725
		c-0.011-4.417-0.79-8.833-1.216-13.269c-11.41-4.463-21.215-2.014-32.133,1.92c-0.135,5.096-0.305,10.166-0.398,15.238
		c-0.41,22.495,0.15,45.06-1.51,67.461c-1.2,16.188-1.47,32.238-0.658,48.378c0.261,5.185,0.87,10.365,0.88,15.548
		c0.122,64.673,5.115,129.102,9.924,193.528c2.23,29.887,5.809,59.67,8.448,89.53c3.914,44.283,11.488,88.05,18.229,131.935
		c1.048,6.821,3.231,13.461,4.566,20.248c1.402,7.13,4.935,12.717,10.519,17.329c8.896,7.348,17.503,15.044,26.389,22.404
		C651.7,1134.111,654.316,1134.957,658.897,1137.342z M586.203,123.271c-8.727,10.355-16.673,18.62-22.15,29.424
		c7.706,14.125,16.354,27.216,27.575,38.564c14.595-12.964,15.067-13.56,20.918-26.296
		C604.246,151.808,598.46,136.671,586.203,123.271z M641.716,496.833c-4.354-3.091-7.166-6.096-10.619-7.379
		c-27.398-10.186-54.879-10.58-82.251,0.277c-1.582,0.628-3.056,1.586-4.483,2.536c-2.569,1.711-4.112,3.885-2.326,8.06
		c2.729,0.558,5.989,1.847,9.207,1.752c6.862-0.203,13.802-0.593,20.53-1.864c13.715-2.591,27.273-2.589,41.048-0.363
		c7.29,1.178,14.833,1.012,22.259,0.96C636.828,500.802,638.564,498.799,641.716,496.833z M563.28,63.789
		c6.534,18.46,16.71,33.765,26.354,39.391c8.095-12.152,17.14-23.742,23.265-37.483c-8.617-7.135-17.909-6.956-27.055-6.768
		C578.056,59.09,569.752,57.738,563.28,63.789z M592.457,209.483c-9.86,12.227-18.762,23.264-27.601,34.224
		c9.699,10.17,9.699,10.17,21.769,14.669c3.295-4.975,6.724-10.173,10.174-15.357c3.75-5.635,7.52-11.256,11.201-16.763
		C604.233,219.159,599.076,214.797,592.457,209.483z M561.235,232.419c9.385-10.739,18.403-20.592,24.268-33.007
		c-4.157-6.208-7.844-12.021-11.847-17.607c-4.158-5.802-7.321-12.442-13.333-18.296
		C557.483,196.746,557.711,218.541,561.235,232.419z M607.206,290.383c-7.135-4.018-11.925-9.892-20.185-12.122
		c-4.877,8.848-9.622,17.317-14.209,25.87c-1.327,2.475-2.202,5.192-3.268,7.759c4.31,7.09,10.364,11.138,17.657,15.207
		c2.932-4.123,5.887-7.549,8.018-11.427C599.339,308.175,604.453,301.114,607.206,290.383z M613.797,147.988
		c1.122-0.407,2.244-0.813,3.365-1.22c0.152-21.144,0.326-42.289,0.359-63.433c0.001-0.697-1.416-1.397-2.938-2.803
		c-7.946,10.145-15.624,20.475-21.439,32.593C599.576,125.277,605.847,137.145,613.797,147.988z M560.815,139.858
		c7.772-8.131,16.045-15.345,20.618-26.423c-5.543-8.62-11.074-17.334-16.763-25.944c-0.822-1.244-2.402-1.986-5.148-4.163
		C558.948,102.997,559.608,121.124,560.815,139.858z M589.3,397.956c-4.846,7.456-8.596,13.105-12.215,18.837
		c-2.366,3.747-2.168,7.723,0.026,11.398c1.993,3.337,4.439,6.403,7.201,10.32c9.266-8.088,15.483-17.371,22.665-27.357
		C601.114,406.776,596.193,403.102,589.3,397.956z M590.413,343.252c-5.306,11.87-9.679,21.652-14.394,32.201
		c4.079,3.102,7.512,5.714,11.372,8.649c8.052-9.423,15.423-17.891,21.637-28.499C602.903,351.541,597.728,348.106,590.413,343.252z
		 M612.611,279.769c0.994-14.398,2-28.474,2.83-42.561c0.037-0.631-1.52-1.356-3.019-2.609
		c-7.808,9.774-15.029,19.727-18.647,31.529C602.163,275.948,602.125,275.999,612.611,279.769z M579.035,270.008
		c-4.279-3.891-8.009-7.392-11.867-10.746c-1.964-1.708-3.762-4.503-7.938-1.443c0.976,11.341,1.973,23.246,3.053,35.144
		c0.188,2.073,0.728,4.115,1.209,6.735C572.915,290.145,574.991,286.207,579.035,270.008z M566.444,369.096
		c9.91-7.653,11.468-15.77,14.351-22.852c4.291-10.54-1.67-18.339-14.351-20.016C566.444,339.263,566.444,352.289,566.444,369.096z
		 M598.357,199.68c7.047,10.703,7.047,10.703,16.292,16.61c3.143-14.991,3.098-19.386-0.913-34.573
		C607.897,188.18,601.886,192.846,598.357,199.68z M606.633,430.534c-1.16-0.375-2.32-0.751-3.48-1.126
		c-4.185,6.058-8.37,12.116-12.63,18.281c3.96,6.82,7.047,13.414,15.755,16.218C607.237,451.907,607.632,441.22,606.633,430.534z
		 M595.029,334.047c3.812,4.725,7.36,8.924,14.595,7.911c0.257-10.019,1.342-19.487-1.5-29.398
		C602.703,319.19,597.43,325.547,595.029,334.047z M607.15,397.339c3.128-7.143,2.639-14.456,1.345-23.807
		c-6.711,5.569-10.076,10.965-12.757,16.522C598.368,394.939,601.119,398.107,607.15,397.339z M570.128,383.046
		c-0.897,10.627-1.89,17.556,1.186,25.914c5.844-5.314,8.061-10.777,10.513-17.025C578.628,389.505,575.732,387.305,570.128,383.046
		z M577.893,472.542c7.996,0,13.246,0,19.774,0c-2.662-5.974-5.784-9.76-9.85-12.783c-0.739-0.549-2.059-0.316-4.132-0.568
		C582.103,462.838,580.405,466.751,577.893,472.542z M573.96,456.601c7.054-7.923,6.944-8.486-0.709-12.876
		C573.484,447.96,573.69,451.696,573.96,456.601z"/>
</g>
</svg>
